<?xml version="1.0" encoding="UTF-8"?>
<svg width="24px" height="24px" viewBox="0 0 24 24" version="1.1" xmlns="http://www.w3.org/2000/svg">
    <path d="M22,12 C22,6.47715 17.5228,2 12,2 C6.47715,2 2,6.47715 2,12 C2,16.9912 5.65684,21.1283 10.4375,21.8785 L10.4375,14.8906 L7.89844,14.8906 L7.89844,12 L10.4375,12 L10.4375,9.79688 C10.4375,7.29063 11.9305,5.90625 14.2146,5.90625 C15.3084,5.90625 16.4531,6.10156 16.4531,6.10156 L16.4531,8.5625 L15.1922,8.5625 C13.95,8.5625 13.5625,9.33334 13.5625,10.1242 L13.5625,12 L16.3359,12 L15.8926,14.8906 L13.5625,14.8906 L13.5625,21.8785 C18.3432,21.1283 22,16.9912 22,12 Z" fill="#FFFFFF"></path>
</svg>
