<?xml version="1.0" encoding="UTF-8"?>
<svg width="24px" height="24px" viewBox="0 0 24 24" version="1.1" xmlns="http://www.w3.org/2000/svg">
    <path d="M12,2 C14.717,2 15.056,2.01 16.122,2.06 C17.187,2.11 17.912,2.277 18.55,2.525 C19.21,2.779 19.766,3.123 20.322,3.678 C20.8305,4.1779 21.224,4.78259 21.475,5.45 C21.722,6.087 21.89,6.813 21.94,7.878 C21.987,8.944 22,9.283 22,12 C22,14.717 21.99,15.056 21.94,16.122 C21.89,17.187 21.722,17.912 21.475,18.55 C21.2247,19.2178 20.8311,19.8226 20.322,20.322 C19.822,20.8303 19.2173,21.2238 18.55,21.475 C17.913,21.722 17.187,21.89 16.122,21.94 C15.056,21.987 14.717,22 12,22 C9.283,22 8.944,21.99 7.878,21.94 C6.813,21.89 6.088,21.722 5.45,21.475 C4.78233,21.2245 4.17753,20.8309 3.678,20.322 C3.16941,19.8222 2.77593,19.2175 2.525,18.55 C2.277,17.913 2.11,17.187 2.06,16.122 C2.013,15.056 2,14.717 2,12 C2,9.283 2.01,8.944 2.06,7.878 C2.11,6.812 2.277,6.088 2.525,5.45 C2.77524,4.78218 3.1688,4.17732 3.678,3.678 C4.17767,3.16923 4.78243,2.77573 5.45,2.525 C6.088,2.277 6.812,2.11 7.878,2.06 C8.944,2.013 9.283,2 12,2 Z M12,7 C9.23858,7 7,9.23858 7,12 C7,14.7614 9.23858,17 12,17 C14.7614,17 17,14.7614 17,12 C17,9.23858 14.7614,7 12,7 Z M12,15 C10.3431,15 9,13.6569 9,12 C9,10.3431 10.3431,9 12,9 C13.6569,9 15,10.3431 15,12 C15,13.6569 13.6569,15 12,15 Z M18.5,6.75 C18.5,7.3 18.0523,7.75 17.5,7.75 C16.9477,7.75 16.5,7.3 16.5,6.75 C16.5,6.19772 16.9477,5.75 17.5,5.75 C18.0523,5.75 18.5,6.19772 18.5,6.75 Z" fill="#FFFFFF"></path>
</svg>
