<?xml version="1.0" encoding="UTF-8"?>
<svg width="24px" height="24px" viewBox="0 0 24 24" version="1.1" xmlns="http://www.w3.org/2000/svg">
    <path d="M19,3 C20.1046,3 21,3.89543 21,5 L21,19 C21,20.1046 20.1046,21 19,21 L5,21 C3.89543,21 3,20.1046 3,19 L3,5 C3,3.89543 3.89543,3 5,3 L19,3 Z M18.5,18.5 L18.5,13.2998 C18.5,11.6198 17.9399,10.2998 16.2199,10.2998 C15.4099,10.2998 14.7699,10.7498 14.5499,11.1798 L14.5499,10.4998 L12.5499,10.4998 L12.5499,18.4998 L14.5499,18.4998 L14.5499,13.7998 C14.5499,13.1998 15.0399,12.5998 15.7499,12.5998 C16.4599,12.5998 16.5499,13.1998 16.5499,13.7998 L16.5499,18.4998 L18.5,18.4998 L18.5,18.5 Z M6.5,18.5 L8.5,18.5 L8.5,10.5 L6.5,10.5 L6.5,18.5 Z M7.5,5.5 C6.67157,5.5 6,6.17157 6,7 C6,7.82843 6.67157,8.5 7.5,8.5 C8.32843,8.5 9,7.82843 9,7 C9,6.17157 8.32843,5.5 7.5,5.5 Z" fill="#FFFFFF"></path>
</svg>
